<?xml version="1.0" encoding="utf-8"?>
<!-- Generator: Adobe Illustrator 23.0.6, SVG Export Plug-In . SVG Version: 6.00 Build 0)  -->
<svg version="1.1" id="Laag_1" xmlns="http://www.w3.org/2000/svg" xmlns:xlink="http://www.w3.org/1999/xlink" x="0px" y="0px"
	 viewBox="0 0 318 122.3" style="enable-background:new 0 0 318 122.3;" xml:space="preserve">
<style type="text/css">
	.st0{fill:#4AB8A6;}
	.st1{fill:#363636;}
</style>
<g>
	<path class="st0" d="M21.4,34.9c0-0.7,0.2-1.4,0.7-2.1c-1.1-0.8-2.3-1.1-3.6-1.1c-2.1,0-3.8,0.9-5.1,2.6c-1.3,1.7-2,4.1-2,7
		c0,3,0.7,5.4,2.1,7.2c1.4,1.8,3.2,2.7,5.5,2.7c2.3,0,4-1.3,5.1-3.8c0.7-1.6,1.2-2.6,1.7-3c0.7-0.6,1.7-0.9,3.1-0.9
		c1.6,0,2.9,0.5,3.9,1.5c1,1,1.5,2.2,1.5,3.7c0,3.2-1.6,6-4.7,8.4c-3.1,2.4-6.9,3.6-11.3,3.6c-5.6,0-10.1-1.7-13.4-5.2
		C1.7,52,0,47.4,0,41.6c0-5.8,1.7-10.5,5.1-13.9c3.4-3.4,8-5.1,13.8-5.1c4.2,0,7.6,1,10.4,3c2.7,2,4.1,4.5,4.1,7.5
		c0,1.9-0.6,3.4-1.9,4.6c-1.2,1.2-2.8,1.7-4.8,1.7c-1.6,0-2.9-0.4-3.9-1.2C21.9,37.3,21.4,36.2,21.4,34.9z"/>
	<path class="st0" d="M52.2,11.4c1.3,0,2,0.9,2,2.6v33.7c0,2.4,0.5,3.6,1.4,3.6c0.4,0,0.7,0,1-0.1c0.3-0.1,0.7-0.1,1.1-0.1
		c2.1,0,3.1,1.2,3.1,3.7c0,3.3-1.4,4.9-4.3,4.9c0,0-1.9-0.1-5.4-0.4c-1.1-0.1-2.3-0.1-3.5-0.1c-1,0-2.2,0.1-3.4,0.2
		c-2,0.2-3.3,0.4-3.8,0.4c-1.3,0-2.3-0.4-3.1-1.3c-0.8-0.9-1.2-2-1.2-3.5c0-2.7,1.2-4,3.5-4c0.3,0,0.7,0.1,1.2,0.2
		c0.5,0.2,0.9,0.2,1.2,0.2c0.8,0,1.2-1.3,1.2-4V23.7c0-2.7-0.4-4-1.2-4c-0.3,0-0.8,0.1-1.3,0.3c-0.3,0.1-0.7,0.1-1.1,0.1
		c-2.3,0-3.4-1.3-3.4-3.9c0-1.5,0.4-2.6,1.2-3.5c0.8-0.9,1.9-1.3,3.3-1.3c0.4,0,1.2,0.1,2.4,0.2c1.6,0.2,2.8,0.3,3.6,0.3
		c1.1,0,2-0.1,2.9-0.3C50.7,11.5,51.6,11.4,52.2,11.4z"/>
	<path class="st0" d="M78.9,23.6c1.3,0,2,0.9,2,2.8v21.5c0,2.4,0.4,3.6,1.4,3.6c0.2,0,0.5-0.1,1-0.2c0.5-0.1,0.9-0.2,1.2-0.2
		c2,0,3,1.2,3,3.7c0,3.3-1.4,4.9-4.2,4.9c-0.5,0-1.8-0.1-4-0.4c-1.3-0.1-2.9-0.2-4.6-0.2c-0.9,0-2.1,0.1-3.8,0.3
		c-1.7,0.2-2.9,0.3-3.7,0.3c-1.3,0-2.3-0.4-3.1-1.3c-0.8-0.9-1.2-2-1.2-3.4c0-2.7,1.1-4.1,3.4-4.1l1.9,0.4c0.2,0,0.4,0.1,0.5,0.1
		c0.9,0,1.3-1.3,1.3-4V35.9c0-2.7-0.4-4.1-1.2-4.1c-0.1,0-0.6,0.1-1.3,0.4c-0.5,0.1-0.9,0.1-1.1,0.1c-2.3,0-3.4-1.3-3.4-4
		c0-1.4,0.4-2.6,1.2-3.5c0.8-0.9,1.9-1.3,3.2-1.3c0.5,0,1.3,0.1,2.3,0.2c1.7,0.2,3,0.4,4,0.4c0.8,0,1.9-0.1,3.1-0.3
		C78.1,23.7,78.8,23.6,78.9,23.6z"/>
	<path class="st0" d="M111,34.9c0-0.7,0.2-1.4,0.7-2.1c-1.1-0.8-2.3-1.1-3.6-1.1c-2.1,0-3.8,0.9-5.1,2.6c-1.3,1.7-2,4.1-2,7
		c0,3,0.7,5.4,2.1,7.2c1.4,1.8,3.2,2.7,5.5,2.7c2.3,0,4-1.3,5.1-3.8c0.7-1.6,1.2-2.6,1.7-3c0.7-0.6,1.7-0.9,3.1-0.9
		c1.6,0,2.9,0.5,3.9,1.5c1,1,1.5,2.2,1.5,3.7c0,3.2-1.6,6-4.7,8.4c-3.1,2.4-6.9,3.6-11.3,3.6c-5.6,0-10.1-1.7-13.4-5.2
		c-3.3-3.4-5-8.1-5-13.9c0-5.8,1.7-10.5,5.1-13.9c3.4-3.4,8-5.1,13.8-5.1c4.2,0,7.6,1,10.4,3c2.7,2,4.1,4.5,4.1,7.5
		c0,1.9-0.6,3.4-1.9,4.6c-1.2,1.2-2.8,1.7-4.8,1.7c-1.6,0-2.9-0.4-3.9-1.2C111.5,37.3,111,36.2,111,34.9z"/>
	<path class="st0" d="M143.8,14.1v24.3l3.4-2.9c0.3-0.2,0.8-0.7,1.6-1.4c1.3-1.1,1.9-2,1.9-2.6c0-0.4-0.2-0.8-0.6-1.1l-1.1-1.1
		c-0.6-0.6-0.9-1.4-0.9-2.4c0-2.2,1.2-3.3,3.7-3.3c0.9,0,2.2,0.1,3.9,0.3c1.8,0.2,3.1,0.3,4,0.3c1.4,0,3.1-0.1,5.1-0.3
		c2-0.2,3.1-0.3,3.2-0.3c2.8,0,4.2,1.4,4.2,4.3c0,2.8-1.1,4.1-3.3,4.1c-0.4,0-1-0.1-1.6-0.2c-0.6-0.1-1.1-0.2-1.4-0.2
		c-0.7,0-1.7,0.5-3.1,1.6l-3,2.2c-1.2,0.9-1.9,1.6-1.9,2.1c0,0.2,0.1,0.5,0.3,0.8l0.6,0.9l5.6,8.8c1.5,2.4,2.7,3.6,3.6,3.6
		c0.3,0,0.7-0.1,1.1-0.2l1.5-0.2c2.1,0,3.2,1.4,3.2,4.1c0,3-1.4,4.5-4.2,4.5c-0.8,0-1.9-0.1-3.4-0.3c-1.5-0.2-2.7-0.3-3.4-0.3
		c-1.3,0-2.5,0.1-3.8,0.3s-2.1,0.3-2.7,0.3c-1,0-1.8-0.4-2.5-1.1c-0.7-0.8-1.1-1.7-1.1-2.7c0-0.6,0.3-1.4,0.9-2.5
		c0.3-0.5,0.5-0.9,0.5-1.4c0-0.6-0.5-1.6-1.6-3.1l-2.4-3.3c-0.9-1.2-1.5-1.9-1.6-1.9c-0.5,0-1.2,0.5-2.2,1.4l-2.6,2.4V49
		c0,1.8,0.4,2.7,1.1,2.7c0.3,0,0.7-0.1,1.2-0.2c0.5-0.1,1-0.2,1.3-0.2c1.9,0,2.9,1.1,2.9,3.4c0,3.4-1.4,5.1-4.1,5.1
		c-0.7,0-1.7-0.1-3.1-0.3c-1.4-0.2-3.4-0.3-6.1-0.3c-1.5,0-2.7,0.1-3.7,0.2c-1.6,0.2-2.7,0.4-3.3,0.4c-1.3,0-2.3-0.4-3.1-1.3
		c-0.8-0.9-1.2-2-1.2-3.4c0-2.7,1.2-4.1,3.5-4.1c0,0,0.5,0.1,1.8,0.4c0.2,0,0.4,0.1,0.5,0.1c0.9,0,1.3-1.3,1.3-4V23.7
		c0-2.7-0.4-4-1.2-4c-0.3,0-0.8,0.1-1.3,0.3c-0.3,0.1-0.7,0.1-1.1,0.1c-2.3,0-3.4-1.3-3.4-3.9c0-3.2,1.5-4.8,4.6-4.8
		c0.8,0,1.4,0,2.1,0.1c1.5,0.2,2.7,0.4,3.6,0.4c0.7,0,1.7-0.1,3.1-0.3c1.1-0.1,1.9-0.2,2.4-0.2C143.1,11.4,143.8,12.3,143.8,14.1z"
		/>
</g>
<g>
	<path class="st1" d="M148.8,95.2c-0.2-5.6-4.5-8.1-9.6-8.1c-4,0-8.7,1.6-8.7,6.3c0,4,4.6,5.4,7.6,6.2l6,1.4
		c5.1,0.8,10.5,3.8,10.5,10.2c0,8-7.9,11.1-14.8,11.1c-8.6,0-14.4-4-15.1-13h4.5c0.4,6.1,4.8,9.2,10.8,9.2c4.2,0,10.1-1.9,10.1-7
		c0-4.3-4-5.7-8.1-6.7l-5.8-1.3c-5.8-1.6-10.3-3.6-10.3-9.8c0-7.5,7.3-10.3,13.8-10.3c7.3,0,13.2,3.9,13.5,11.8H148.8z"/>
	<path class="st1" d="M168.2,84.5h7.5v3.8h-7.5v24.8c0,2.9,0.4,4.6,3.6,4.9c1.3,0,2.6-0.1,3.8-0.2v3.8c-1.4,0-2.6,0.1-4,0.1
		c-6,0-8.1-2-8-8.3V88.3h-6.4v-3.8h6.4V73.4h4.5V84.5z"/>
	<path class="st1" d="M181.8,95.7c0.4-8.6,6.5-12.3,14.9-12.3c6.5,0,13.5,2,13.5,11.8v19.5c0,1.7,0.9,2.7,2.6,2.7
		c0.5,0,1.1-0.1,1.4-0.3v3.8c-1,0.2-1.7,0.3-2.9,0.3c-4.6,0-5.3-2.6-5.3-6.4h-0.1c-3.1,4.8-6.3,7.5-13.4,7.5
		c-6.8,0-12.3-3.4-12.3-10.8c0-10.3,10.1-10.7,19.8-11.8c3.7-0.4,5.8-0.9,5.8-5c0-6.1-4.3-7.6-9.6-7.6c-5.6,0-9.7,2.6-9.8,8.6H181.8
		z M205.7,101.2h-0.1c-0.6,1.1-2.6,1.4-3.8,1.6c-7.6,1.4-17.1,1.3-17.1,8.5c0,4.5,4,7.3,8.2,7.3c6.8,0,12.9-4.4,12.8-11.6V101.2z"/>
	<path class="st1" d="M219.2,84.5h4.1v8.6h0.1c2.3-5.9,7.3-9.4,13.9-9.1v4.5c-8.1-0.4-13.7,5.6-13.7,13.2v19.6h-4.5V84.5z"/>
	<path class="st1" d="M248.8,84.5h7.5v3.8h-7.5v24.8c0,2.9,0.4,4.6,3.6,4.9c1.3,0,2.6-0.1,3.8-0.2v3.8c-1.4,0-2.6,0.1-4,0.1
		c-6,0-8.1-2-8-8.3V88.3h-6.4v-3.8h6.4V73.4h4.5V84.5z"/>
	<path class="st1" d="M265.4,104.1c0.1,6.6,3.5,14.5,12.1,14.5c6.6,0,10.1-3.9,11.6-9.4h4.5c-1.9,8.3-6.8,13.2-16,13.2
		c-11.7,0-16.6-9-16.6-19.5c0-9.7,4.9-19.5,16.6-19.5c11.8,0,16.5,10.3,16.2,20.7H265.4z M289.3,100.3c-0.2-6.8-4.4-13.1-11.7-13.1
		c-7.3,0-11.4,6.4-12.1,13.1H289.3z"/>
	<path class="st1" d="M299.8,84.5h4.1v8.6h0.1c2.3-5.9,7.3-9.4,13.9-9.1v4.5c-8.1-0.4-13.7,5.6-13.7,13.2v19.6h-4.5V84.5z"/>
</g>
<path class="st1" d="M73.2,20.3c0,0,0.4,0.9,1.2,0.2c0,0,10.9-13,10.9-13s0.3-1-0.7-0.9c-0.1,0-4.5,0.9-4.5,0.9l2-5.7
	c0,0,0.3-1.2-0.8-1.7c-1-0.5-1.8,0.4-2,0.7c0,0-2,5.8-2,5.8l-2.9-3.9c0,0-1-0.6-1.1,0.4C73.1,3.1,73.2,20.3,73.2,20.3z"/>
</svg>
